#!OML:ASF E:\Style4\Style4.ASF
:FULLY-SPECIFIED
:DEGREES
2437
root -0.197339 17.6317 -1.96176 -1.55961 -1.31213 1.9707
lowerback 6.87125 2.05866 -0.254057
upperback 2.12284 2.72989 0.469251
thorax -1.69434 1.36102 0.400583
lowerneck -2.99576 -5.00653 -6.48907
upperneck 10.1241 -6.62435 3.3286
head 4.26481 -3.37766 1.95553
rclavicle -1.18277e-014 3.18055e-015
rhumerus 39.9482 15.4264 -67.0315
rradius 31.3247
rwrist 25.7475
rhand -36.9909 32.205
rfingers 7.12502
rthumb -10.0659 2.46576
lclavicle -1.18277e-014 3.18055e-015
lhumerus 43.4898 -27.2913 62.9238
lradius 43.2916
lwrist -21.3923
lhand -29.5037 30.2586
lfingers 7.12502
lthumb -2.83816 60.2195
rfemur -13.3386 0.0603175 16.8675
rtibia 36.1769
rfoot -19.8691 -13.2327
rtoes -11.7121
lfemur -10.7352 -2.18143 -20.4943
ltibia 33.403
lfoot -20.7199 8.25606
ltoes -14.102
2438
root -0.197405 17.6307 -1.96287 -1.56903 -1.30931 1.93773
lowerback 6.85927 2.05901 -0.211956
upperback 2.13777 2.73325 0.474333
thorax -1.67065 1.36266 0.382825
lowerneck -3.07593 -5.01679 -6.46751
upperneck 10.2131 -6.63127 3.2802
head 4.30974 -3.38212 1.93248
rclavicle 1.3418e-014 1.03368e-014
rhumerus 39.9605 15.405 -67.0351
rradius 31.3532
rwrist 25.7685
rhand -36.9906 32.2249
rfingers 7.12502
rthumb -10.0656 2.48566
lclavicle 1.3418e-014 1.03368e-014
lhumerus 43.5755 -27.2725 62.9047
lradius 43.2647
lwrist -21.4343
lhand -29.3434 30.2715
lfingers 7.12502
lthumb -2.68338 60.2344
rfemur -13.3635 0.0916998 16.9037
rtibia 36.1271
rfoot -19.9086 -13.4803
rtoes -12.5694
lfemur -10.7221 -2.19506 -20.4572
ltibia 33.3961
lfoot -20.715 8.2858
ltoes -14.2514
2439
root -0.197635 17.631 -1.96288 -1.53998 -1.30505 1.97158
lowerback 6.7934 2.05771 -0.227211
upperback 2.13752 2.73 0.444945
thorax -1.63359 1.36111 0.364013
lowerneck -3.04331 -5.01713 -6.40934
upperneck 10.1949 -6.63299 3.23751
head 4.29163 -3.38267 1.908
rclavicle 4.00054e-014 1.98785e-015
rhumerus 39.9554 15.4236 -67.04
rradius 31.3947
rwrist 25.7957
rhand -37.073 32.0339
rfingers 7.12502
rthumb -10.1451 2.2985
lclavicle 4.00054e-014 1.98785e-015
lhumerus 43.6837 -27.2937 62.7555
lradius 43.2809
lwrist -21.3349
lhand -29.1707 30.3153
lfingers 7.12502
lthumb -2.51658 60.2802
rfemur -13.3997 0.095221 16.8626
rtibia 36.0644
rfoot -19.895 -13.5784
rtoes -13.0095
lfemur -10.7468 -2.21814 -20.497
ltibia 33.385
lfoot -20.6734 8.30142
ltoes -14.4431
2440
root -0.198823 17.632 -1.96259 -1.53136 -1.3152 2.00371
lowerback 6.7728 2.06664 -0.260843
upperback 2.13086 2.73937 0.428076
thorax -1.62983 1.36583 0.365371
lowerneck -3.04157 -5.00933 -6.39319
upperneck 10.1925 -6.62234 3.22471
head 4.2883 -3.37734 1.90135
rclavicle 4.64162e-014 -3.97569e-016
rhumerus 39.926 15.5354 -66.9264
rradius 31.4931
rwrist 25.4975
rhand -37.1006 32.0676
rfingers 7.12502
rthumb -10.1717 2.33349
lclavicle 4.64162e-014 -3.97569e-016
lhumerus 43.7539 -27.3094 62.698
lradius 43.2612
lwrist -21.2759
lhand -29.264 30.268
lfingers 7.12502
lthumb -2.60667 60.2318
rfemur -13.3877 0.123191 16.8285
rtibia 36.022
rfoot -19.8561 -13.5729
rtoes -12.9679
lfemur -10.7447 -2.23116 -20.5311
ltibia 33.3618
lfoot -20.6425 8.31742
ltoes -14.3449
2441
root -0.200649 17.6325 -1.96368 -1.52353 -1.31916 2.00158
lowerback 6.77161 2.07579 -0.28038
upperback 2.11974 2.75027 0.427641
thorax -1.64161 1.3713 0.374728
lowerneck -3.03946 -5.0168 -6.45791
upperneck 10.1642 -6.63858 3.33082
head 4.28732 -3.38325 1.94874
rclavicle -2.46493e-014 5.1684e-015
rhumerus 39.9112 15.6349 -66.8203
rradius 31.5609
rwrist 25.2351
rhand -37.1715 32.1567
rfingers 7.12502
rthumb -10.2401 2.42594
lclavicle -2.46493e-014 5.1684e-015
lhumerus 43.759 -27.3085 62.7421
lradius 43.2675
lwrist -21.2901
lhand -29.5331 29.9838
lfingers 7.12502
lthumb -2.86656 59.9442
rfemur -13.3957 0.149124 16.8415
rtibia 36.0075
rfoot -19.8514 -13.6008
rtoes -12.7
lfemur -10.7453 -2.23632 -20.5212
ltibia 33.3341
lfoot -20.6401 8.30244
ltoes -14.1787
2442
root -0.200738 17.6318 -1.96375 -1.52384 -1.33315 2.06698
lowerback 6.76088 2.07664 -0.3583
upperback 2.11315 2.74609 0.418108
thorax -1.64556 1.36926 0.409066
lowerneck -3.06727 -5.01324 -6.54543
upperneck 10.1684 -6.63571 3.42299
head 4.30336 -3.38116 1.99584
rclavicle -2.24627e-014 -7.95139e-016
rhumerus 39.8871 15.6825 -66.8014
rradius 31.6916
rwrist 25.4209
rhand -37.1418 32.0361
rfingers 7.12502
rthumb -10.2114 2.30391
lclavicle -2.24627e-014 -7.95139e-016
lhumerus 43.6994 -27.2739 62.8364
lradius 43.2907
lwrist -21.3569
lhand -29.7547 29.6005
lfingers 7.12502
lthumb -3.08059 59.558
rfemur -13.397 0.119974 16.7679
rtibia 36.0044
rfoot -19.8552 -13.5641
rtoes -12.6926
lfemur -10.7141 -2.22674 -20.5949
ltibia 33.2873
lfoot -20.6298 8.3079
ltoes -14.15
2443
root -0.201291 17.6336 -1.96371 -1.53354 -1.33856 2.06719
lowerback 6.77877 2.07643 -0.352991
upperback 2.09513 2.74589 0.405657
thorax -1.67318 1.36921 0.392209
lowerneck -3.05692 -5.00841 -6.57515
upperneck 10.149 -6.63341 3.47997
head 4.29859 -3.3788 2.02129
rclavicle -2.54444e-014 -3.97569e-016
rhumerus 39.8307 15.6839 -66.8042
rradius 31.8082
rwrist 25.6621
rhand -37.056 32.0336
rfingers 7.12502
rthumb -10.1286 2.29743
lclavicle -2.54444e-014 -3.97569e-016
lhumerus 43.5787 -27.274 62.9553
lradius 43.3526
lwrist -21.439
lhand -29.7097 29.4824
lfingers 7.12502
lthumb -3.03709 59.4405
rfemur -13.3873 0.100514 16.7724
rtibia 36.0083
rfoot -19.8172 -13.548
rtoes -12.7001
lfemur -10.6744 -2.23651 -20.595
ltibia 33.2431
lfoot -20.6633 8.30081
ltoes -13.9476
2444
root -0.201494 17.6361 -1.96296 -1.53403 -1.34998 2.10012
lowerback 6.76433 2.08989 -0.369767
upperback 2.09481 2.76217 0.378974
thorax -1.66513 1.37738 0.37343
lowerneck -3.04023 -5.02241 -6.5168
upperneck 10.0991 -6.65364 3.45359
head 4.27411 -3.38744 2.00103
rclavicle 1.0635e-014 -1.15295e-014
rhumerus 39.8125 15.7606 -66.6808
rradius 31.9198
rwrist 25.5504
rhand -37.0571 31.9314
rfingers 7.12502
rthumb -10.1297 2.1952
lclavicle 1.0635e-014 -1.15295e-014
lhumerus 43.5718 -27.292 63.0077
lradius 43.3416
lwrist -21.4799
lhand -29.7177 29.4729
lfingers 7.12502
lthumb -3.04486 59.4309
rfemur -13.4027 0.0852999 16.733
rtibia 36.0454
rfoot -19.8366 -13.5432
rtoes -12.8917
lfemur -10.6343 -2.25525 -20.636
ltibia 33.1823
lfoot -20.6036 8.37887
ltoes -14.2054
2445
root -0.202311 17.6371 -1.96308 -1.51424 -1.34001 2.10041
lowerback 6.72817 2.07726 -0.407866
upperback 2.0838 2.7435 0.401646
thorax -1.65908 1.36809 0.420643
lowerneck -3.0482 -5.02803 -6.53339
upperneck 10.0985 -6.657 3.42818
head 4.27524 -3.39074 1.99492
rclavicle 2.59911e-014 7.95139e-016
rhumerus 39.8222 15.9886 -66.4717
rradius 32.073
rwrist 25.3785
rhand -37.1153 31.7085
rfingers 7.12502
rthumb -10.1858 1.9751
lclavicle 2.59911e-014 7.95139e-016
lhumerus 43.5943 -27.295 62.9911
lradius 43.3027
lwrist -21.4186
lhand -29.7605 29.7106
lfingers 7.12502
lthumb -3.08617 59.668
rfemur -13.4101 0.0697653 16.7374
rtibia 36.0825
rfoot -19.8285 -13.4474
rtoes -12.5498
lfemur -10.6398 -2.25862 -20.6323
ltibia 33.1321
lfoot -20.5173 8.41088
ltoes -14.5415
2446
root -0.202815 17.6386 -1.96383 -1.48674 -1.33078 2.13071
lowerback 6.70321 2.07225 -0.433906
upperback 2.06826 2.73483 0.380695
thorax -1.66131 1.36385 0.414998
lowerneck -3.11737 -5.04367 -6.51195
upperneck 10.1454 -6.6765 3.43091
head 4.30614 -3.39908 1.98918
rclavicle -4.06018e-014 5.56597e-015
rhumerus 39.8138 16.0242 -66.4894
rradius 32.141
rwrist 25.3653
rhand -37.1515 31.9378
rfingers 7.12502
rthumb -10.2208 2.20611
lclavicle -4.06018e-014 5.56597e-015
lhumerus 43.6131 -27.2989 62.968
lradius 43.2918
lwrist -21.3663
lhand -29.7125 29.7682
lfingers 7.12502
lthumb -3.03977 59.7263
rfemur -13.3947 0.011328 16.7021
rtibia 36.1011
rfoot -19.8089 -13.1864
rtoes -11.7788
lfemur -10.6632 -2.267 -20.6625
ltibia 33.0968
lfoot -20.4824 8.42773
ltoes -14.5042
2447
root -0.203469 17.639 -1.96388 -1.49553 -1.33115 2.13203
lowerback 6.69634 2.06539 -0.450348
upperback 2.06324 2.72484 0.389152
thorax -1.66372 1.35888 0.433816
lowerneck -3.08047 -5.04111 -6.53209
upperneck 10.4488 -6.70313 3.62199
head 3.96944 -3.39125 1.85587
rclavicle -4.4975e-014 -1.43125e-014
rhumerus 39.8045 16.0652 -66.5035
rradius 32.1894
rwrist 25.3302
rhand -37.0584 32.2562
rfingers 7.12502
rthumb -10.131 2.52009
lclavicle -4.4975e-014 -1.43125e-014
lhumerus 43.5555 -27.2598 63.0268
lradius 43.33
lwrist -21.3887
lhand -29.5062 29.8169
lfingers 7.12502
lthumb -2.84056 59.7777
rfemur -13.3764 -0.0242237 16.699
rtibia 36.0926
rfoot -19.8357 -13.1742
rtoes -11.8271
lfemur -10.6377 -2.27961 -20.6645
ltibia 33.0888
lfoot -20.5587 8.37868
ltoes -14.0816
2448
root -0.2053 17.6386 -1.96474 -1.48606 -1.31922 2.09909
lowerback 6.68834 2.06566 -0.437303
upperback 2.04933 2.72644 0.404067
thorax -1.67373 1.35971 0.44168
lowerneck -3.10606 -5.03997 -6.50663
upperneck 10.1436 -6.6724 3.42869
head 4.30257 -3.39707 1.98794
rclavicle 1.799e-014 7.95139e-016
rhumerus 39.7473 16.0617 -66.5123
rradius 32.2903
rwrist 25.3512
rhand -36.9232 32.3313
rfingers 7.12502
rthumb -10.0006 2.58886
lclavicle 1.799e-014 7.95139e-016
lhumerus 43.535 -27.247 63.0731
lradius 43.3514
lwrist -21.3437
lhand -29.4624 29.6264
lfingers 7.12502
lthumb -2.79829 59.5878
rfemur -13.4303 -0.00074895 16.741
rtibia 36.0572
rfoot -19.8555 -13.4469
rtoes -12.7566
lfemur -10.6564 -2.31613 -20.6226
ltibia 33.0936
lfoot -20.573 8.37537
ltoes -14.0898
2449
root -0.205713 17.6382 -1.96512 -1.4657 -1.31873 2.10013
lowerback 6.67117 2.07032 -0.435124
upperback 2.03795 2.73261 0.390647
thorax -1.67523 1.36283 0.426591
lowerneck -3.13946 -5.03356 -6.44604
upperneck 10.1652 -6.66328 3.399
head 4.31183 -3.39129 1.96648
rclavicle -2.38542e-014 6.36111e-015
rhumerus 39.7268 16.0581 -66.5101
rradius 32.3617
rwrist 25.3654
rhand -36.83 32.0805
rfingers 7.12502
rthumb -9.91061 2.3338
lclavicle -2.38542e-014 6.36111e-015
lhumerus 43.5477 -27.2457 63.0638
lradius 43.331
lwrist -21.3736
lhand -29.4577 29.4184
lfingers 7.12502
lthumb -2.79373 59.3798
rfemur -13.4582 0.00337276 16.7426
rtibia 36.0006
rfoot -19.8188 -13.602
rtoes -13.448
lfemur -10.6794 -2.35042 -20.6261
ltibia 33.1016
lfoot -20.5853 8.4214
ltoes -14.2045
